<?xml version="1.0" standalone="no"?><!DOCTYPE svg PUBLIC "-//W3C//DTD SVG 1.1//EN" "http://www.w3.org/Graphics/SVG/1.1/DTD/svg11.dtd"><svg t="1730358494662" class="icon" viewBox="0 0 1024 1024" version="1.1" xmlns="http://www.w3.org/2000/svg" p-id="965" xmlns:xlink="http://www.w3.org/1999/xlink" width="200" height="200"><path d="M189.04 911.04a51.6 51.6 0 0 1-51.12-45.92V692l1.6-0.48h57.28l0.48 1.6v158.4h160v58.96l-1.44 0.48zM684.08 911.04l-0.4-58.96 160-0.48v-160l1.36-0.48h58.08v168a51.52 51.52 0 0 1-51.44 51.44zM520 751.52c-120.96 0-230.88-68.96-326.48-204.96a32 32 0 0 1 0-36.72C289.84 373.84 400 304.88 520 304.88s230.88 68.96 326.56 204.96a32 32 0 0 1 0 36.8C750.88 682.56 640.96 751.52 520 751.52z m-8.72-382.64C428.32 372 350 417.44 278.24 504l-11.12 13.84-8 10.08 8 10.08C336.88 628 413.44 677.84 494.4 686.4l13.28 1.04L520 688c86.64 0 168-45.76 242.48-136l11.12-13.6 8-10.16-7.52-10C704 428.4 627.2 378.56 546.32 370.08l-13.36-1.04-21.68-1.04z" p-id="966"></path><path d="M520.48 633.68h-5.04a105.36 105.36 0 0 1 0-210.56H520a105.44 105.44 0 0 1 0.56 210.8z m0-147.04A41.6 41.6 0 0 0 478.64 528v1.76a42.72 42.72 0 0 0 40 40h2.4a41.28 41.28 0 0 0 41.2-39.2v-2.48a41.36 41.36 0 0 0-41.28-41.6zM138 364.88l-0.4-168a51.44 51.44 0 0 1 51.44-51.44h167.52v58.88l-160 0.4v160h-1.36zM843.68 364.88v-160H684.08l-0.4-1.36v-57.6l168-0.4a51.44 51.44 0 0 1 51.44 51.44v168z" p-id="967"></path></svg>