<?xml version="1.0" standalone="no"?><!DOCTYPE svg PUBLIC "-//W3C//DTD SVG 1.1//EN" "http://www.w3.org/Graphics/SVG/1.1/DTD/svg11.dtd"><svg t="1730358517225" class="icon" viewBox="0 0 1024 1024" version="1.1" xmlns="http://www.w3.org/2000/svg" p-id="1571" xmlns:xlink="http://www.w3.org/1999/xlink" width="200" height="200"><path d="M512 64.363c-246.825 0-447.636 200.811-447.636 447.636S265.175 959.635 512 959.635 959.636 758.824 959.636 512 758.825 64.363 512 64.363z m0 814.959c-202.544 0-367.322-164.779-367.322-367.322S309.457 144.678 512 144.678 879.322 309.457 879.322 512 714.543 879.322 512 879.322z m160.968-463.793c22.177 0 40.157-17.98 40.157-40.157s-17.98-40.156-40.157-40.156l-120.811-0.005v-23.97c0-22.176-17.98-40.156-40.157-40.156s-40.157 17.98-40.157 40.157v23.965l-120.811-0.005c-22.177 0-40.157 17.98-40.157 40.157 0 1.18 0.248 2.29 0.347 3.443-0.085 1.068-0.321 2.089-0.321 3.178l-0.027 118.628c0 1.476 0.279 2.875 0.434 4.31-0.154 1.431-0.434 2.825-0.434 4.298 0 22.177 17.98 40.156 40.157 40.156l120.811 0.005v59.106H351.031c-22.177 0-40.157 17.981-40.157 40.157 0 22.177 17.98 40.157 40.157 40.157h120.811v23.947c0 22.177 17.98 40.157 40.157 40.157s40.157-17.98 40.157-40.157v-23.947h120.811c22.177 0 40.157-17.98 40.157-40.157 0-0.188-0.054-0.363-0.056-0.552 0.001-0.077 0.023-0.148 0.023-0.226l0.033-138.628v-0.003-0.003c0-0.744-0.18-1.437-0.22-2.17-0.701-12.942-7.374-24.3-17.486-31.129-0.022-0.014-0.049-0.023-0.07-0.038a39.992 39.992 0 0 0-6.75-3.664c-0.388-0.164-0.823-0.226-1.218-0.378-2.044-0.79-4.127-1.514-6.318-1.962-1.37-0.28-2.823-0.29-4.24-0.428-1.285-0.124-2.53-0.389-3.848-0.389h-0.006l-120.811-0.005v-53.542l120.811 0.006z m-40.167 133.855l-0.014 59.1h-80.63v-59.103l80.644 0.003z m-160.959-80.32l-80.646-0.004 0.01-53.542 80.636 0.003v53.542z" fill="" p-id="1572"></path></svg>