<?xml version="1.0" standalone="no"?><!DOCTYPE svg PUBLIC "-//W3C//DTD SVG 1.1//EN" "http://www.w3.org/Graphics/SVG/1.1/DTD/svg11.dtd"><svg t="1730358512467" class="icon" viewBox="0 0 1024 1024" version="1.1" xmlns="http://www.w3.org/2000/svg" p-id="1426" xmlns:xlink="http://www.w3.org/1999/xlink" width="200" height="200"><path d="M796.16 699.904h-46.592l-16.384-17.408c57.856-67.072 91.648-153.088 91.648-247.808 0-210.944-170.496-381.44-380.928-381.44-210.944 0-379.392 171.52-379.392 380.928 0 209.92 170.496 380.928 380.928 380.928 94.208 0 182.272-34.816 247.808-91.648l16.896 16.384v45.568l181.76 181.76L977.92 880.64c-82.944-82.944-181.76-180.736-181.76-180.736z m-332.288-2.56v-95.744h-40.96v95.744c-129.536-10.24-232.96-114.176-242.176-244.224h92.672v-40.96h-92.16c10.752-128.512 113.152-231.424 242.176-241.152v91.648h40.96V171.008c129.024 9.728 232.96 112.64 243.2 241.152h-94.72v40.96h94.72c-9.216 130.56-113.152 235.008-243.712 244.224z" fill="" p-id="1427"></path><path d="M443.904 367.104c-17.92 0-34.304 7.168-46.08 19.456-11.776 11.776-19.456 28.16-19.456 46.08 0 35.84 29.184 65.024 65.024 65.024 17.92 0 34.304-7.168 46.08-19.456 11.776-11.776 19.456-28.16 19.456-46.08 0-35.84-29.184-65.024-65.024-65.024z" fill="" p-id="1428"></path></svg>